# xmcd
# 
# Track frame offsets:
#     150
#     19330
#     37352
#     62305
#     87737
#     117035
#     135922
#     160360
#     177707
#     193105
#     214645
#     238292
# 
# Disc length: 3450
# 
# Revision: 9
# Processed by: cddbd v1.5.2PL0 Copyright (c) Steve Scherf et al.
# Submitted via: fre:ac v1.0.17
# 
DISCID=b00d780c
DTITLE=Scorpions - The Best Of Scorpions - The Millennium Collection
DYEAR=2001
DGENRE=Rock
TTITLE0=Rock You Like a Hurricane
TTITLE1=No One Like You
TTITLE2=The Zoo
TTITLE3=Loving You Sunday Morning
TTITLE4=Still Loving You
TTITLE5=Big City Night
TTITLE6=Believe in Love
TTITLE7=Rhythm of Love
TTITLE8=I Can't Explain
TTITLE9=Tease Me Please Me
TTITLE10=Wind of Change
TTITLE11=Send Me an Angel
EXTD=YEAR: 2001
EXTT0=
EXTT1=
EXTT2=
EXTT3=
EXTT4=
EXTT5=
EXTT6=
EXTT7=
EXTT8=
EXTT9=
EXTT10=
EXTT11=
PLAYORDER=
